<svg width="246" height="246" viewBox="0 0 246 246" fill="none" xmlns="http://www.w3.org/2000/svg">
<g id="Frame">
<g id="Group">
<path id="Vector" d="M219.094 42.2812V26.9062H172.969V42.2812H165.281V184.5H226.781V42.2812H219.094Z" fill="#80DAFF"/>
<path id="Vector_2" d="M30.0195 184.5C40.1843 199.862 53.9968 212.465 70.2223 221.185C86.4479 229.905 104.581 234.469 123.001 234.469C141.421 234.469 159.555 229.905 175.78 221.185C192.006 212.465 205.818 199.862 215.983 184.5H30.0195Z" fill="#FBD373"/>
<path id="Vector_3" d="M111.469 184.5H57.6562V130.688L84.5625 107.625L111.469 130.688V184.5Z" fill="#80DAFF"/>
<path id="Vector_4" d="M165.281 184.5H111.469V99.9375L142.219 69.1875H165.281V184.5Z" fill="#F47B79"/>
<path id="Vector_5" d="M53.8125 207.562H192.188V215.25H53.8125V207.562Z" fill="black"/>
<path id="Vector_6" d="M57.6562 184.5H19.2188V153.75L38.4375 142.219L57.6562 153.75V184.5Z" fill="#F47B79"/>
<path id="Vector_7" d="M11.5312 103.781L69.1875 49.9688L92.25 69.1875L126.844 30.75L115.312 23.0625L153.75 11.5312L149.906 49.9688L138.375 42.2812L92.25 92.25L69.1875 73.0312L11.5312 126.844V103.781Z" fill="#FBD373"/>
<path id="Vector_8" d="M230.625 180.656V138.375H222.938V180.656H199.875V165.281H192.188V180.656H169.125V46.1251H222.938V130.688H230.625V42.2814C230.625 41.2619 230.22 40.2843 229.499 39.5634C228.778 38.8426 227.801 38.4376 226.781 38.4376H222.938V26.9064C222.938 25.8869 222.533 24.9093 221.812 24.1884C221.091 23.4676 220.113 23.0626 219.094 23.0626H199.875V7.68762H192.188V23.0626H172.969C171.949 23.0626 170.972 23.4676 170.251 24.1884C169.53 24.9093 169.125 25.8869 169.125 26.9064V38.4376H165.281C164.262 38.4376 163.284 38.8426 162.563 39.5634C161.842 40.2843 161.438 41.2619 161.438 42.2814V65.3439H142.219C141.714 65.3438 141.214 65.4432 140.748 65.6364C140.281 65.8295 139.858 66.1127 139.501 66.4696L108.751 97.2196C108.394 97.5765 108.111 98.0003 107.918 98.4666C107.724 98.933 107.625 99.4328 107.625 99.9376V122.33L87.0638 104.707C86.3671 104.11 85.4799 103.782 84.5625 103.782C83.6451 103.782 82.7579 104.11 82.0612 104.707L55.1549 127.769C54.7339 128.13 54.396 128.578 54.1642 129.081C53.9325 129.585 53.8125 130.133 53.8125 130.688V146.961L40.4151 138.923C39.8177 138.564 39.1342 138.375 38.4375 138.375C37.7408 138.375 37.0573 138.564 36.4599 138.923L17.2411 150.454C16.672 150.796 16.2009 151.279 15.8739 151.856C15.5469 152.434 15.375 153.086 15.375 153.75V180.656H7.6875V188.344H27.9767C38.577 203.753 52.7657 216.354 69.3198 225.059C85.8739 233.764 104.297 238.312 123 238.312C141.703 238.312 160.126 233.764 176.68 225.059C193.234 216.354 207.423 203.753 218.023 188.344H238.312V180.656H230.625ZM176.812 30.7501H215.25V38.4376H176.812V30.7501ZM115.312 101.53L143.811 73.0314H161.438V180.656H142.219V165.281H134.531V180.656H115.312V101.53ZM61.5 132.456L84.5625 112.688L107.625 132.456V180.656H88.4062V165.281H80.7188V180.656H61.5V132.456ZM23.0625 155.927L38.4375 146.702L53.8125 155.927V180.656H42.2812V165.281H34.5938V180.656H23.0625V155.927ZM37.4718 188.344H72.0367C78.9403 203.104 88.3429 216.56 99.8294 228.117C74.9908 222.659 52.8942 208.565 37.4718 188.344ZM113.504 230.209C100.068 219.016 88.781 204.648 80.5842 188.344H165.416C157.219 204.648 145.933 219.016 132.496 230.209C129.356 230.485 126.191 230.624 123 230.625C119.812 230.625 116.647 230.486 113.504 230.209ZM146.171 228.117C157.657 216.56 167.06 203.104 173.963 188.344H208.528C193.106 208.565 171.009 222.659 146.171 228.117Z" fill="black"/>
<path id="Vector_9" d="M69.1875 138.375H76.875V157.594H69.1875V138.375ZM92.25 138.375H99.9375V157.594H92.25V138.375ZM123 138.375H130.688V157.594H123V138.375ZM146.062 138.375H153.75V157.594H146.062V138.375ZM123 111.469H130.688V130.688H123V111.469ZM146.062 111.469H153.75V130.688H146.062V111.469ZM176.812 111.469H184.5V130.688H176.812V111.469ZM192.188 111.469H199.875V130.688H192.188V111.469ZM176.812 84.5625H184.5V103.781H176.812V84.5625ZM192.188 84.5625H199.875V103.781H192.188V84.5625ZM176.812 57.6563H184.5V76.875H176.812V57.6563ZM192.188 57.6563H199.875V76.875H192.188V57.6563ZM207.562 111.469H215.25V130.688H207.562V111.469ZM176.812 138.375H184.5V157.594H176.812V138.375ZM192.188 138.375H199.875V157.594H192.188V138.375ZM207.562 138.375H215.25V157.594H207.562V138.375ZM207.562 84.5625H215.25V103.781H207.562V84.5625ZM207.562 57.6563H215.25V76.875H207.562V57.6563ZM146.062 84.5625H153.75V103.781H146.062V84.5625ZM9.99904 130.369C10.6859 130.667 11.445 130.759 12.1831 130.632C12.9212 130.505 13.6061 130.165 14.1536 129.654L69.3316 78.155L89.7895 95.203C90.5468 95.834 91.5176 96.15 92.5012 96.0856C93.4848 96.0212 94.4061 95.5814 95.0747 94.857L138.974 47.2998L147.774 53.1663C148.326 53.5342 148.964 53.753 149.625 53.8016C150.287 53.8501 150.95 53.7267 151.549 53.4433C152.149 53.1598 152.665 52.7261 153.047 52.1842C153.43 51.6423 153.665 51.0107 153.731 50.3507L157.575 11.9132C157.638 11.2847 157.545 10.6505 157.304 10.0665C157.064 9.4825 156.683 8.96682 156.195 8.56506C155.708 8.16329 155.129 7.88781 154.51 7.763C153.891 7.63818 153.25 7.66786 152.645 7.84943L114.208 19.3807C113.509 19.5903 112.884 19.9944 112.407 20.5458C111.929 21.0973 111.618 21.7733 111.511 22.4948C111.403 23.2163 111.503 23.9536 111.798 24.6206C112.094 25.2875 112.574 25.8564 113.181 26.261L121.013 31.4827L91.868 63.8663L71.6485 47.0163C70.9292 46.4168 70.0158 46.1006 69.0798 46.1268C68.1438 46.1531 67.2496 46.5201 66.5651 47.159L45.9737 66.3777L51.2189 71.9978L69.3316 55.0925L89.7895 72.1405C90.5532 72.7766 91.5337 73.0923 92.5251 73.0211C93.5165 72.95 94.4418 72.4977 95.1069 71.759L129.701 33.3215C130.07 32.9115 130.346 32.4268 130.511 31.9005C130.676 31.3741 130.726 30.8184 130.657 30.2711C130.589 29.7238 130.403 29.1976 130.113 28.7284C129.823 28.2593 129.435 27.858 128.976 27.552L124.243 24.3963L149.354 16.863L146.718 43.2235L140.507 39.0833C139.746 38.5756 138.829 38.3562 137.92 38.4646C137.011 38.5729 136.171 39.0018 135.551 39.6742L91.9041 86.9581L71.6485 70.0783C70.9292 69.4788 70.0158 69.1626 69.0798 69.1888C68.1438 69.2151 67.2496 69.5821 66.5651 70.221L15.375 117.998V105.452L44.9036 77.8912L39.6584 72.2712L8.90837 100.971C8.52306 101.331 8.21584 101.766 8.00581 102.249C7.79578 102.733 7.68744 103.254 7.6875 103.781V126.844C7.68755 127.593 7.90634 128.325 8.31698 128.951C8.72763 129.578 9.31225 130.07 9.99904 130.369Z" fill="black"/>
</g>
</g>
</svg>
