<svg xmlns="http://www.w3.org/2000/svg" viewBox="0 0 73 90"><path fill="#001c64" d="M28.53 17.96a2.59 2.59 0 0 0-2.56 2.18l-4.24 26.94a2.59 2.59 0 0 1 2.55-2.19h12.45a25.42 25.42 0 0 0 25.1-21.52 20.76 20.76 0 0 0 .24-2.8 23.62 23.62 0 0 0-11.02-2.61z"/><path fill="#0070e0" d="M62.07 20.58a20.76 20.76 0 0 1-.25 2.8 25.42 25.42 0 0 1-25.1 21.51H24.29c-1.27 0-2.36.93-2.55 2.19l-3.91 24.75-2.45 15.53a2.1 2.1 0 0 0 2.08 2.43h13.5a2.59 2.59 0 0 0 2.56-2.19l3.56-22.56a2.59 2.59 0 0 1 2.56-2.19h7.95a25.42 25.42 0 0 0 25.1-21.52c1.38-8.79-3.05-16.78-10.61-20.75z"/><path fill="#003087" d="M13.18 0c-1.27 0-2.36.93-2.55 2.18L.03 69.4a2.1 2.1 0 0 0 2.07 2.43h15.72l3.9-24.75 4.25-26.94a2.59 2.59 0 0 1 2.56-2.18h22.52c4.1 0 7.83.95 11.02 2.62C62.28 9.31 52.98 0 40.19 0z"/></svg>
