<svg width="38" height="38" viewBox="0 0 38 38" fill="none" xmlns="http://www.w3.org/2000/svg">
<path d="M37.74 18.88C37.74 29.3 29.29 37.75 18.87 37.75C8.45 37.75 0 29.3 0 18.88C0 18.22 0.0299908 17.57 0.0999908 16.92C1.07999 7.42 9.10999 0 18.87 0C28.63 0 36.66 7.41 37.64 16.92C37.71 17.56 37.74 18.22 37.74 18.88Z" fill="#DE7707"/>
<path d="M37.64 16.9298C36.66 26.4298 28.63 33.8498 18.87 33.8498C9.10998 33.8498 1.07998 26.4398 0.0999756 16.9298C1.07998 7.42977 9.10998 0.00976562 18.87 0.00976562C28.63 0.00976562 36.66 7.41977 37.64 16.9298Z" fill="#F68307"/>
<path d="M11.5 21.7801C13.1679 21.7801 14.52 19.9399 14.52 17.6701C14.52 15.4002 13.1679 13.5601 11.5 13.5601C9.83208 13.5601 8.47998 15.4002 8.47998 17.6701C8.47998 19.9399 9.83208 21.7801 11.5 21.7801Z" fill="#332F2D"/>
<path d="M13.4701 16.59C13.4701 17.35 13.1001 17.97 12.6401 17.97C12.1801 17.97 11.8101 17.35 11.8101 16.59C11.8101 15.83 12.1801 15.21 12.6401 15.21C13.1001 15.21 13.4701 15.83 13.4701 16.59Z" fill="white"/>
<path d="M26.23 21.7801C27.8979 21.7801 29.25 19.9399 29.25 17.6701C29.25 15.4002 27.8979 13.5601 26.23 13.5601C24.5621 13.5601 23.21 15.4002 23.21 17.6701C23.21 19.9399 24.5621 21.7801 26.23 21.7801Z" fill="#332F2D"/>
<path d="M28.2 16.59C28.2 17.35 27.83 17.97 27.37 17.97C26.91 17.97 26.54 17.35 26.54 16.59C26.54 15.83 26.91 15.21 27.37 15.21C27.83 15.21 28.2 15.83 28.2 16.59Z" fill="white"/>
<path d="M14.22 12.0599C14.06 12.0599 13.9 12.0099 13.75 11.9199C12.55 11.1299 11.14 10.7899 9.44 10.8699C8.97 10.8899 8.56999 10.5299 8.54999 10.0599C8.52999 9.58986 8.89 9.18986 9.36 9.16986C11.44 9.07986 13.18 9.50986 14.68 10.4999C15.07 10.7599 15.18 11.2799 14.92 11.6799C14.76 11.9299 14.49 12.0599 14.21 12.0599H14.22Z" fill="#332F2D"/>
<path d="M23.52 12.0599C23.24 12.0599 22.97 11.9299 22.81 11.6799C22.55 11.2899 22.66 10.7599 23.05 10.4999C24.56 9.50986 26.3 9.07986 28.37 9.16986C28.84 9.18986 29.2 9.58986 29.18 10.0599C29.16 10.5299 28.76 10.8899 28.29 10.8699C26.58 10.7899 25.17 11.1399 23.98 11.9199C23.84 12.0099 23.67 12.0599 23.51 12.0599H23.52Z" fill="#332F2D"/>
<path d="M23.26 27.7102C23.13 27.7102 23 27.6802 22.88 27.6202C20.22 26.2602 17.63 26.2602 14.97 27.6202C14.55 27.8302 14.04 27.6702 13.83 27.2502C13.62 26.8302 13.78 26.3202 14.2 26.1102C17.34 24.5102 20.52 24.5102 23.66 26.1102C24.08 26.3202 24.24 26.8302 24.03 27.2502C23.88 27.5502 23.58 27.7102 23.27 27.7102H23.26Z" fill="#332F2D"/>
</svg>
