<svg width="38" height="38" viewBox="0 0 38 38" fill="none" xmlns="http://www.w3.org/2000/svg">
<path d="M37.74 18.87C37.74 29.29 29.29 37.74 18.87 37.74C8.45 37.74 0 29.29 0 18.87C0 18.21 0.03 17.56 0.1 16.91C1.08 7.41 9.11 0 18.87 0C28.63 0 36.66 7.41 37.64 16.92C37.71 17.56 37.74 18.22 37.74 18.88V18.87Z" fill="#55AB0A"/>
<path d="M37.6401 16.92C36.6601 26.42 28.6301 33.84 18.8701 33.84C9.1101 33.84 1.0801 26.42 0.100098 16.92C1.0801 7.41 9.1101 0 18.8701 0C28.6301 0 36.6601 7.41 37.6401 16.92Z" fill="#5DBB0B"/>
<path d="M23.2899 29.6801C22.3199 30.4701 20.9199 31.0301 18.8799 31.0301C16.8399 31.0301 15.3699 30.4501 14.4099 29.6301C12.9099 28.3701 12.4899 26.5501 12.3799 25.4401C12.3199 24.8901 12.6899 24.4001 13.2299 24.2901C16.9999 23.5101 20.7699 23.5101 24.5399 24.2901C25.0799 24.4001 25.4399 24.9001 25.3899 25.4401C25.2799 26.5601 24.8399 28.4101 23.2999 29.6701L23.2899 29.6801Z" fill="#332F2D"/>
<path d="M8.45 12.0499C8.17 12.0499 7.89 11.9099 7.73 11.6499C7.48 11.2499 7.6 10.7299 8 10.4799C9.65 9.43989 11.4 9.00989 13.34 9.15989C13.81 9.19989 14.16 9.60989 14.12 10.0699C14.08 10.5399 13.67 10.8899 13.21 10.8499C11.65 10.7299 10.24 11.0799 8.91 11.9099C8.77 11.9999 8.61 12.0399 8.46 12.0399L8.45 12.0499Z" fill="#332F2D"/>
<path d="M29.2901 12.0501C29.1401 12.0501 28.9801 12.0101 28.8401 11.9201C27.5101 11.0801 26.1001 10.7401 24.5401 10.8601C24.0701 10.9001 23.6601 10.5501 23.6301 10.0801C23.5901 9.61014 23.9401 9.20014 24.4101 9.17014C26.3501 9.02014 28.0901 9.45014 29.7501 10.4901C30.1501 10.7401 30.2701 11.2601 30.0201 11.6601C29.8601 11.9201 29.5801 12.0601 29.3001 12.0601L29.2901 12.0501Z" fill="#332F2D"/>
<path d="M11.5101 15.1299C9.30007 15.1299 7.60007 20.5699 8.62007 20.5699C9.64007 20.5699 9.87007 18.3599 11.5101 18.3599C13.1501 18.3599 13.3801 20.5699 14.4001 20.5699C15.4201 20.5699 13.7201 15.1299 11.5101 15.1299Z" fill="#332F2D"/>
<path d="M26.24 15.1299C24.03 15.1299 22.33 20.5699 23.35 20.5699C24.37 20.5699 24.6 18.3599 26.24 18.3599C27.88 18.3599 28.11 20.5699 29.13 20.5699C30.15 20.5699 28.45 15.1299 26.24 15.1299Z" fill="#332F2D"/>
<path d="M23.2899 29.6801C22.3199 30.4701 20.9199 31.0301 18.8799 31.0301C16.8399 31.0301 15.3699 30.4501 14.4099 29.6301C15.0799 28.2301 16.3699 26.8501 18.8799 26.8501C21.3899 26.8501 22.6699 28.2601 23.2899 29.6801Z" fill="#BF3713"/>
</svg>
