<svg width="38" height="38" viewBox="0 0 38 38" fill="none" xmlns="http://www.w3.org/2000/svg">
<path d="M37.74 18.87C37.74 29.29 29.29 37.74 18.87 37.74C8.45 37.74 0 29.29 0 18.87C0 18.21 0.0299985 17.56 0.0999985 16.91C1.07 7.41 9.1 0 18.86 0C28.62 0 36.65 7.41 37.63 16.92C37.7 17.56 37.73 18.22 37.73 18.88L37.74 18.87Z" fill="#A0BA06"/>
<path d="M37.6301 16.92C36.6501 26.42 28.6201 33.84 18.8601 33.84C9.10009 33.84 1.07009 26.43 0.0900879 16.92C1.07009 7.41 9.10009 0 18.8601 0C28.6201 0 36.6501 7.41 37.6301 16.92Z" fill="#AFCC06"/>
<path d="M8.43999 12.0499C8.15999 12.0499 7.87999 11.9099 7.71999 11.6499C7.46999 11.2499 7.58999 10.7299 7.98999 10.4799C9.63999 9.43989 11.39 9.00989 13.33 9.15989C13.8 9.19989 14.15 9.60989 14.11 10.0699C14.07 10.5399 13.66 10.8899 13.2 10.8499C11.64 10.7299 10.23 11.0799 8.89999 11.9099C8.75999 11.9999 8.59999 12.0399 8.44999 12.0399L8.43999 12.0499Z" fill="#332F2D"/>
<path d="M29.2901 12.0501C29.1401 12.0501 28.9801 12.0101 28.8401 11.9201C27.5101 11.0801 26.1001 10.7401 24.5401 10.8601C24.0701 10.9001 23.6601 10.5501 23.6301 10.0801C23.5901 9.61014 23.9401 9.20014 24.4101 9.17014C26.3501 9.02014 28.0901 9.45014 29.7501 10.4901C30.1501 10.7401 30.2701 11.2601 30.0201 11.6601C29.8601 11.9201 29.5801 12.0601 29.3001 12.0601L29.2901 12.0501Z" fill="#332F2D"/>
<path d="M11.5 21.7698C13.1679 21.7698 14.52 19.9297 14.52 17.6598C14.52 15.3899 13.1679 13.5498 11.5 13.5498C9.83208 13.5498 8.47998 15.3899 8.47998 17.6598C8.47998 19.9297 9.83208 21.7698 11.5 21.7698Z" fill="#332F2D"/>
<path d="M13.46 16.5802C13.46 17.3402 13.0901 17.9602 12.6301 17.9602C12.1701 17.9602 11.8 17.3402 11.8 16.5802C11.8 15.8202 12.1701 15.2002 12.6301 15.2002C13.0901 15.2002 13.46 15.8202 13.46 16.5802Z" fill="white"/>
<path d="M26.23 21.7698C27.8979 21.7698 29.25 19.9297 29.25 17.6598C29.25 15.3899 27.8979 13.5498 26.23 13.5498C24.5621 13.5498 23.21 15.3899 23.21 17.6598C23.21 19.9297 24.5621 21.7698 26.23 21.7698Z" fill="#332F2D"/>
<path d="M28.2 16.5802C28.2 17.3402 27.83 17.9602 27.37 17.9602C26.91 17.9602 26.54 17.3402 26.54 16.5802C26.54 15.8202 26.91 15.2002 27.37 15.2002C27.83 15.2002 28.2 15.8202 28.2 16.5802Z" fill="white"/>
<path d="M18.8601 27.7C17.2801 27.7 15.7001 27.3 14.1301 26.5C13.7101 26.29 13.55 25.78 13.76 25.36C13.97 24.94 14.4801 24.78 14.9001 24.99C17.5601 26.35 20.1501 26.35 22.8101 24.99C23.2301 24.78 23.7401 24.94 23.9501 25.36C24.1601 25.78 24 26.29 23.58 26.5C22.01 27.3 20.43 27.7 18.85 27.7H18.8601Z" fill="#332F2D"/>
</svg>
