<svg width="38" height="38" viewBox="0 0 38 38" fill="none" xmlns="http://www.w3.org/2000/svg">
<path d="M37.74 18.88C37.74 29.3 29.29 37.75 18.87 37.75C8.45 37.75 0 29.3 0 18.88C0 18.22 0.0300061 17.57 0.100006 16.92C1.08001 7.42 9.11 0 18.87 0C28.63 0 36.66 7.41 37.64 16.92C37.71 17.56 37.74 18.22 37.74 18.88Z" fill="#E6B00B"/>
<path d="M37.6401 16.9298C36.6601 26.4298 28.6301 33.8498 18.8701 33.8498C9.11009 33.8498 1.0801 26.4398 0.100098 16.9298C1.0801 7.42977 9.11009 0.00976562 18.8701 0.00976562C28.6301 0.00976562 36.6601 7.41977 37.6401 16.9298Z" fill="#F9CC10"/>
<path d="M11.5 21.7801C13.1679 21.7801 14.52 19.9399 14.52 17.6701C14.52 15.4002 13.1679 13.5601 11.5 13.5601C9.83208 13.5601 8.47998 15.4002 8.47998 17.6701C8.47998 19.9399 9.83208 21.7801 11.5 21.7801Z" fill="#332F2D"/>
<path d="M13.46 16.59C13.46 17.35 13.0901 17.97 12.6301 17.97C12.1701 17.97 11.8 17.35 11.8 16.59C11.8 15.83 12.1701 15.21 12.6301 15.21C13.0901 15.21 13.46 15.83 13.46 16.59Z" fill="white"/>
<path d="M26.23 21.7801C27.8979 21.7801 29.25 19.9399 29.25 17.6701C29.25 15.4002 27.8979 13.5601 26.23 13.5601C24.5621 13.5601 23.21 15.4002 23.21 17.6701C23.21 19.9399 24.5621 21.7801 26.23 21.7801Z" fill="#332F2D"/>
<path d="M28.2 16.59C28.2 17.35 27.83 17.97 27.37 17.97C26.91 17.97 26.54 17.35 26.54 16.59C26.54 15.83 26.91 15.21 27.37 15.21C27.83 15.21 28.2 15.83 28.2 16.59Z" fill="white"/>
<path d="M23.2099 26.5999H14.5199C14.0499 26.5999 13.6699 26.2199 13.6699 25.7499C13.6699 25.2799 14.0499 24.8999 14.5199 24.8999H23.2099C23.6799 24.8999 24.0599 25.2799 24.0599 25.7499C24.0599 26.2199 23.6799 26.5999 23.2099 26.5999Z" fill="#332F2D"/>
<path d="M28.64 12.0599H23.82C23.35 12.0599 22.97 11.6799 22.97 11.2099C22.97 10.7399 23.35 10.3599 23.82 10.3599H28.64C29.11 10.3599 29.49 10.7399 29.49 11.2099C29.49 11.6799 29.11 12.0599 28.64 12.0599Z" fill="#332F2D"/>
<path d="M13.91 12.0599H9.08999C8.61999 12.0599 8.23999 11.6799 8.23999 11.2099C8.23999 10.7399 8.61999 10.3599 9.08999 10.3599H13.91C14.38 10.3599 14.76 10.7399 14.76 11.2099C14.76 11.6799 14.38 12.0599 13.91 12.0599Z" fill="#332F2D"/>
</svg>
