<svg width="38" height="38" viewBox="0 0 38 38" fill="none" xmlns="http://www.w3.org/2000/svg">
<path d="M37.74 18.88C37.74 29.3 29.29 37.75 18.87 37.75C8.45001 37.75 0 29.3 0 18.88C0 18.22 0.0300061 17.57 0.100006 16.92C1.08001 7.42 9.11001 0 18.87 0C28.63 0 36.66 7.41 37.64 16.92C37.71 17.56 37.74 18.22 37.74 18.88Z" fill="#BA3320"/>
<path d="M37.64 16.9298C36.66 26.4298 28.63 33.8498 18.87 33.8498C9.10998 33.8498 1.07998 26.4398 0.0999756 16.9298C1.07998 7.42977 9.10998 0.00976562 18.87 0.00976562C28.63 0.00976562 36.66 7.41977 37.64 16.9298Z" fill="#D73A25"/>
<path d="M11.5 14.8102C11.5 14.8102 10.65 14.6702 9.58998 14.4902C8.90998 15.2402 8.47998 16.3902 8.47998 17.6702C8.47998 19.9402 9.82998 21.7802 11.5 21.7802C13.17 21.7802 14.52 19.9402 14.52 17.6702C14.52 16.9602 14.39 16.2802 14.15 15.7002L11.5 14.8102Z" fill="#332F2D"/>
<path d="M25.17 15.2101L23.6 15.6601C23.35 16.2601 23.21 16.9401 23.21 17.6801C23.21 19.9501 24.5599 21.7901 26.2299 21.7901C27.9 21.7901 29.25 19.9501 29.25 17.6801C29.25 16.5701 28.92 15.5701 28.4 14.8301L25.16 15.2201L25.17 15.2101Z" fill="#332F2D"/>
<path d="M13.4701 16.59C13.4701 17.35 13.1001 17.97 12.6401 17.97C12.1801 17.97 11.8101 17.35 11.8101 16.59C11.8101 15.83 12.1801 15.21 12.6401 15.21C13.1001 15.21 13.4701 15.83 13.4701 16.59Z" fill="white"/>
<path d="M28.2 16.59C28.2 17.35 27.83 17.97 27.37 17.97C26.91 17.97 26.54 17.35 26.54 16.59C26.54 15.83 26.91 15.21 27.37 15.21C27.83 15.21 28.2 15.83 28.2 16.59Z" fill="white"/>
<path d="M13.28 27.1498C13.1 27.1498 12.9101 27.0898 12.7601 26.9698C12.3901 26.6798 12.3301 26.1498 12.6201 25.7798C14.2201 23.7398 16.5001 22.5698 18.8701 22.5698C21.2401 22.5698 23.33 23.6298 24.94 25.5598C25.24 25.9198 25.19 26.4598 24.83 26.7598C24.47 27.0598 23.93 27.0098 23.63 26.6498C22.35 25.1098 20.6601 24.2698 18.8701 24.2698C17.0801 24.2698 15.2601 25.1798 13.9601 26.8298C13.7901 27.0398 13.5401 27.1598 13.2901 27.1598L13.28 27.1498Z" fill="#332F2D"/>
<path d="M16.38 17.52C16.21 17.52 16.03 17.47 15.89 17.36C12.6 15.01 7.40002 15.19 7.35002 15.19C6.88002 15.21 6.49001 14.84 6.47001 14.38C6.45001 13.91 6.82001 13.52 7.28001 13.5C7.48001 13.5 11.57 13.35 15.1 14.97C14.96 14.63 14.78 14.28 14.54 13.92C14.28 13.53 14.38 13 14.77 12.74C15.16 12.48 15.69 12.58 15.95 12.97C17.15 14.74 17.23 16.57 17.23 16.65C17.24 16.97 17.07 17.28 16.78 17.43C16.65 17.5 16.52 17.53 16.38 17.53V17.52Z" fill="#332F2D"/>
<path d="M21.3601 17.5203C21.2201 17.5203 21.0801 17.4903 20.9601 17.4203C20.6701 17.2703 20.5001 16.9703 20.5101 16.6403C20.5101 16.5603 20.5901 14.7303 21.7901 12.9603C22.0501 12.5703 22.5801 12.4703 22.9701 12.7303C23.3601 12.9903 23.46 13.5203 23.2 13.9103C22.96 14.2603 22.7801 14.6203 22.6401 14.9603C26.1701 13.3403 30.2601 13.4903 30.4601 13.4903C30.9301 13.5103 31.2901 13.9103 31.2701 14.3703C31.2501 14.8403 30.8601 15.2003 30.3901 15.1803C30.3401 15.1803 25.1301 15.0003 21.8501 17.3503C21.7001 17.4603 21.5301 17.5103 21.3601 17.5103V17.5203Z" fill="#332F2D"/>
</svg>
