<svg width="347" height="273" viewBox="0 0 347 273" fill="none" xmlns="http://www.w3.org/2000/svg">
<g clip-path="url(#clip0_13720_42563)">
<circle cx="308" cy="47" r="8" fill="#2E3880"/>
<path d="M40 142.5C24.1073 137.425 0 127.5 0 127.5V-0.5H246.5C246.5 -0.5 235.635 3.79694 230 8.5C223.912 13.5807 221.352 17.5693 217.5 24.5C213.136 32.3517 211.988 37.5298 210.061 46.2254L210 46.5C208.087 55.1313 208.858 60.2641 207.5 69C205.658 80.8452 205.028 87.7095 201 99C197.801 107.966 196.106 113.306 190.5 121C183.902 130.057 178.45 133.979 169 140C156.182 148.166 147.378 150.397 132.5 153.5C116.807 156.773 107.479 156.784 91.5 155.5C70.8237 153.839 59.76 148.809 40 142.5Z" fill="#9698AD"/>
</g>
<defs>
<clipPath id="clip0_13720_42563">
<rect width="347" height="273" fill="white"/>
</clipPath>
</defs>
</svg>
