<svg width="425" height="273" viewBox="0 0 425 273" fill="none" xmlns="http://www.w3.org/2000/svg">
<g clip-path="url(#clip0_13720_42563)">
<path d="M0.5 151.5C0.5 151.5 21.7743 167.344 37.5 173C52.9659 178.562 62.6846 181.984 79 180C95.7484 177.963 105.257 172.954 118.5 162.5C133.216 150.883 136.169 139.146 146.5 123.5C156.446 108.438 157.655 96.6812 170.5 84C180.52 74.1075 187.318 68.9504 200.5 64C214.308 58.8143 223.271 58.7143 238 59.5C259.03 60.6219 268.847 71.3805 289.5 75.5C308.745 79.3385 320.312 84.6132 339.5 80.5C354.103 77.3696 362.481 73.5057 374 64C384.964 54.9521 388.186 46.8747 396 35C404.601 21.9297 415.5 0 415.5 0" stroke="#F4F4F4" strokeOpacity="0.2" strokeWidth="2"/>
</g>
<defs>
<clipPath id="clip0_13720_42563">
<rect width="425" height="273" fill="white"/>
</clipPath>
</defs>
</svg>
