<svg width="40" height="40" viewBox="0 0 40 40" fill="none" xmlns="http://www.w3.org/2000/svg">
<g clip-path="url(#clip0_1218_779)">
<path fill-rule="evenodd" clipRule="evenodd" d="M11.5511 23.6321C9.25427 26.2033 8.69443 28.6304 9.01771 30.98C11.3693 31.3034 13.7945 30.7431 16.3657 28.4488L13.9584 26.039L11.5511 23.6321Z" fill="#FFC300"/>
<path fill-rule="evenodd" clipRule="evenodd" d="M26.3586 21.6125V34.2666C27.849 32.7762 30.6504 30.38 31.5695 28.6217C33.6555 24.6311 33.2859 20.0314 31.6936 17.1303L26.3586 21.6125ZM18.3862 13.6401H5.73438C7.22477 12.1497 9.61875 9.34832 11.3771 8.42918C15.3677 6.34324 19.9674 6.71293 22.8685 8.30738L18.3862 13.6401Z" fill="#FE0050"/>
<path fill-rule="evenodd" clipRule="evenodd" d="M14.9086 29.5804L10.4219 25.0915C10.7632 24.5783 11.1414 24.0905 11.5535 23.6321L13.9608 26.039L16.3679 28.4488C15.9094 28.8607 15.4216 29.2389 14.9084 29.5804H14.9086Z" fill="#E6B000"/>
<path fill-rule="evenodd" clipRule="evenodd" d="M15.3091 19.5884L17.2823 21.5616L18.4361 22.7153L20.4092 24.6885L16.8726 30.5349L13.7456 27.408L12.5918 26.2542L9.46484 23.1273L15.3091 19.5884Z" fill="#214C5F"/>
<path fill-rule="evenodd" clipRule="evenodd" d="M19.0052 27.0116L12.9883 20.9946L15.3113 19.5884L17.2845 21.5616L18.4384 22.7153L20.4115 24.6885L19.0052 27.0116Z" fill="#1E4456"/>
<path fill-rule="evenodd" clipRule="evenodd" d="M14.3242 13.6401C15.6729 11.2218 17.4755 9.03606 19.5019 7.16919C20.6797 7.36065 21.8177 7.74524 22.8702 8.30747L18.388 13.6401H14.3242ZM32.8313 20.5008C30.9667 22.525 28.7809 24.3299 26.3604 25.6786V21.6125L31.6953 17.1303C32.258 18.1831 32.6419 19.3222 32.8313 20.5008Z" fill="#E50048"/>
<path fill-rule="evenodd" clipRule="evenodd" d="M13.0039 19.7522C15.1564 8.21659 29.5179 -0.984977 39.2377 0.760102C40.9849 10.4799 31.7834 24.8413 20.2455 26.996L16.6246 23.3731L13.0039 19.7522Z" fill="#EAF6FF"/>
<path fill-rule="evenodd" clipRule="evenodd" d="M29.8698 10.1277C30.4955 10.7532 30.9217 11.5502 31.0944 12.418C31.2671 13.2857 31.1786 14.1852 30.8401 15.0026C30.5016 15.82 29.9283 16.5187 29.1927 17.0103C28.4571 17.5018 27.5922 17.7642 26.7074 17.7642C25.8227 17.7642 24.9578 17.5018 24.2222 17.0103C23.4866 16.5187 22.9132 15.82 22.5747 15.0026C22.2362 14.1852 22.1477 13.2857 22.3204 12.418C22.4932 11.5502 22.9193 10.7532 23.545 10.1277C24.3839 9.28932 25.5214 8.81836 26.7074 8.81836C27.8934 8.81836 29.0309 9.28932 29.8698 10.1277Z" fill="#214C5F"/>
<path fill-rule="evenodd" clipRule="evenodd" d="M38.533 8.97416L31.0234 1.46455C33.878 0.594007 36.7148 0.306351 39.2373 0.760335C39.6912 3.28494 39.4055 6.11971 38.533 8.97416Z" fill="#FE0050"/>
<path fill-rule="evenodd" clipRule="evenodd" d="M13.7723 20.5208L14.4035 21.1519C14.4876 20.7511 14.5858 20.3539 14.698 19.9604C15.327 17.7304 16.3944 15.6022 17.7696 13.6401C19.1946 11.6331 20.879 9.82356 22.779 8.25873C25.6978 5.83381 29.0705 3.96248 32.4345 2.87295L31.0238 1.46436C27.3609 2.58271 23.6692 4.66662 20.5688 7.40186C18.5027 9.22451 16.7022 11.335 15.3469 13.6403C14.2197 15.5604 13.4025 17.6176 13.0039 19.7525L13.7723 20.5208Z" fill="#D3DDE6"/>
<path fill-rule="evenodd" clipRule="evenodd" d="M32.4358 2.87295C34.8098 2.1067 37.1794 1.73022 39.3851 1.82764C39.3516 1.4775 39.3044 1.12882 39.2434 0.782408C39.2411 0.775767 39.2411 0.766783 39.2389 0.76022C39.2321 0.759814 39.2254 0.758338 39.219 0.755845C36.701 0.308502 33.8708 0.596392 31.0251 1.46444L32.4358 2.87295ZM7.12328 13.6401C8.60039 12.0944 10.6112 9.87319 12.1389 9.07374C14.2457 7.98459 16.6115 7.4958 18.9775 7.66085C19.1496 7.49468 19.3238 7.33079 19.5002 7.1692C16.9777 6.73952 14.0413 7.03639 11.3771 8.42928C9.61875 9.34834 7.22477 12.1498 5.73438 13.6402L7.12328 13.6401ZM27.4527 33.2103V25.0275C27.0937 25.2539 26.729 25.471 26.3589 25.6786V34.2666C26.6755 33.95 27.0498 33.5934 27.4527 33.2103Z" fill="#E50048"/>
<path fill-rule="evenodd" clipRule="evenodd" d="M24.6191 16.9219C23.918 16.2206 23.4699 15.3062 23.3451 14.3224C23.2203 13.3387 23.4259 12.3413 23.9297 11.4872C24.4334 10.633 25.2067 9.97047 26.1281 9.6037C27.0494 9.23692 28.0665 9.18671 29.0195 9.46095C28.4741 9.13211 27.8648 8.9235 27.2324 8.84904C26.5999 8.77459 25.9589 8.83601 25.3521 9.02921C24.7453 9.22241 24.1867 9.54293 23.7137 9.96934C23.2407 10.3958 22.8643 10.9182 22.6094 11.5018C22.3546 12.0854 22.2273 12.7167 22.236 13.3535C22.2447 13.9902 22.3893 14.6178 22.6601 15.1942C22.9308 15.7706 23.3215 16.2825 23.806 16.6958C24.2905 17.1091 24.8577 17.4142 25.4695 17.5906C25.1597 17.4034 24.8741 17.1788 24.6191 16.9219ZM10.1934 23.8558L13.7146 21.7232L12.986 20.9946L9.46484 23.1273L10.1934 23.8558Z" fill="#1E4456"/>
<path fill-rule="evenodd" clipRule="evenodd" d="M9.60664 31.0421C9.42507 29.2859 9.75281 27.4874 10.9443 25.6164L10.4194 25.0916C9.07297 27.1289 8.75625 29.08 9.01757 30.9801C9.21289 31.0066 9.40953 31.0288 9.60664 31.0421Z" fill="#E6B000"/>
<path d="M39.7785 0.663168C39.7588 0.553236 39.7058 0.45198 39.6269 0.373012C39.5479 0.294045 39.4466 0.241153 39.3367 0.221449C34.4929 -0.64777 28.3757 1.07364 22.9714 4.82629C22.0885 5.43912 21.2384 6.09795 20.4246 6.80004C17.287 6.0572 13.9871 6.4631 11.123 7.94418C9.68481 8.6959 7.90723 10.5707 6.47895 12.077C6.06887 12.5096 5.6816 12.9181 5.34684 13.2528C5.27026 13.3293 5.2181 13.4267 5.19695 13.5329C5.1758 13.639 5.18662 13.749 5.22803 13.849C5.26945 13.949 5.3396 14.0344 5.4296 14.0945C5.5196 14.1546 5.62541 14.1867 5.73363 14.1866H14.4179C13.4944 15.8989 12.8363 17.7416 12.4662 19.6515C12.4499 19.7389 12.4552 19.8289 12.4815 19.9137C12.5078 19.9986 12.5543 20.0758 12.6171 20.1386L12.8921 20.4136L9.18184 22.6589C9.11084 22.7018 9.05053 22.7603 9.00549 22.83C8.96045 22.8997 8.93186 22.9787 8.92188 23.0611C8.9119 23.1434 8.92079 23.227 8.94788 23.3054C8.97497 23.3838 9.01955 23.4551 9.07824 23.5137L10.1217 24.5571C8.69606 26.6079 8.15801 28.738 8.47809 31.0546C8.49437 31.1727 8.54881 31.2822 8.6331 31.3665C8.7174 31.4508 8.82694 31.5053 8.94504 31.5216C9.36697 31.5806 9.79245 31.6104 10.2185 31.611C12.0507 31.611 13.7727 31.0379 15.4421 29.8775L16.4861 30.9218C16.5447 30.9805 16.6159 31.0251 16.6943 31.0522C16.7728 31.0792 16.8563 31.0881 16.9387 31.0781C17.021 31.0682 17.1 31.0396 17.1697 30.9946C17.2394 30.9495 17.2979 30.8892 17.3408 30.8182L19.5859 27.1077L19.8609 27.3827C19.9237 27.4455 20.0009 27.4921 20.0858 27.5184C20.1707 27.5447 20.2607 27.5499 20.348 27.5336C22.258 27.1635 24.1006 26.5054 25.8129 25.5819V34.2664C25.8129 34.3746 25.8449 34.4804 25.905 34.5704C25.9651 34.6603 26.0505 34.7305 26.1505 34.7719C26.2505 34.8133 26.3605 34.8241 26.4666 34.803C26.5727 34.7819 26.6702 34.7297 26.7467 34.6532C27.0809 34.3189 27.4889 33.9321 27.9206 33.5225C29.4277 32.0928 31.3034 30.3142 32.0557 28.8768C33.5366 26.0128 33.9425 22.7129 33.1996 19.5754C33.9018 18.7617 34.5606 17.9115 35.1733 17.0286C38.9264 11.6245 40.6479 5.50668 39.7785 0.663168ZM38.7637 1.23621C39.0665 3.28848 38.885 5.57582 38.269 7.93332L32.0664 1.73075C34.424 1.11465 36.7114 0.933246 38.7637 1.23621ZM7.0234 13.0928C7.10543 13.0065 7.18856 12.9189 7.27277 12.83C8.64512 11.3825 10.3531 9.5809 11.6294 8.91379C14.0261 7.6752 16.7614 7.25232 19.4203 7.70934C17.7255 9.30005 16.2514 11.1106 15.0375 13.0928H7.0234ZM9.51449 30.4854C9.35652 28.6756 9.81504 26.9849 10.9091 25.3448L14.6553 29.091C13.015 30.1849 11.3243 30.6434 9.51449 30.4854ZM16.7662 29.6545L10.3453 23.2338L13.689 21.2104L18.7896 26.311L16.7662 29.6545ZM31.0865 28.37C30.4189 29.6457 28.6164 31.3552 27.1681 32.7288C27.0801 32.8124 26.9932 32.8949 26.9073 32.9763V24.9625C28.8895 23.7485 30.7001 22.2744 32.2908 20.5797C32.7477 23.2383 32.3248 25.9735 31.0863 28.37H31.0865ZM32.2203 19.0341C32.1974 19.056 32.1765 19.0798 32.1578 19.1054C30.3271 21.1783 28.2785 22.8893 26.1196 24.16C26.0946 24.1722 26.0705 24.1863 26.0476 24.2021C24.2299 25.2626 22.3354 26.012 20.4286 26.4032L13.5968 19.5714C13.988 17.6646 14.7374 15.77 15.7979 13.9523C15.8137 13.9295 15.8277 13.9055 15.8398 13.8805C17.1104 11.722 18.821 9.67371 20.8936 7.84317C20.9198 7.82398 20.9444 7.80252 20.9669 7.77903C21.8037 7.04538 22.6813 6.3596 23.5955 5.72496C25.9461 4.09254 28.429 2.86043 30.8671 2.07871L37.9211 9.13262C37.1394 11.5707 35.9074 14.0539 34.275 16.4044C33.6401 17.319 32.954 18.1969 32.22 19.0339L32.2203 19.0341ZM30.2593 9.74082C29.5573 9.03943 28.663 8.56193 27.6897 8.36867C26.7163 8.17541 25.7075 8.27507 24.7907 8.65505C23.8739 9.03503 23.0904 9.67828 22.5392 10.5035C21.9879 11.3287 21.6937 12.2988 21.6937 13.2912C21.6937 14.2836 21.9879 15.2537 22.5392 16.0789C23.0904 16.9041 23.8739 17.5473 24.7907 17.9273C25.7075 18.3073 26.7163 18.4069 27.6897 18.2137C28.663 18.0204 29.5573 17.5429 30.2593 16.8415C31.1995 15.8992 31.7276 14.6223 31.7276 13.2912C31.7276 11.96 31.1995 10.6832 30.2593 9.74082ZM29.4859 16.0679C28.9368 16.6165 28.2374 16.99 27.4761 17.1411C26.7149 17.2923 25.9258 17.2143 25.2088 16.9171C24.4918 16.6199 23.879 16.1168 23.4479 15.4714C23.0168 14.826 22.7867 14.0673 22.7867 13.2912C22.7867 12.515 23.0168 11.7563 23.4479 11.1109C23.879 10.4655 24.4918 9.96242 25.2088 9.66523C25.9258 9.36804 26.7149 9.2901 27.4761 9.44125C28.2374 9.59239 28.9368 9.96586 29.4859 10.5144C30.2211 11.2515 30.634 12.2501 30.634 13.2912C30.6339 14.3322 30.2209 15.3308 29.4856 16.0678L29.4859 16.0679ZM0.704961 21.4921C0.654173 21.4414 0.613886 21.3811 0.586399 21.3147C0.558913 21.2484 0.544766 21.1773 0.544766 21.1054C0.544766 21.0336 0.558913 20.9625 0.586399 20.8961C0.613886 20.8298 0.654173 20.7695 0.704961 20.7187L4.68457 16.7391C4.78714 16.6365 4.92624 16.5789 5.07129 16.5789C5.14311 16.5789 5.21423 16.5931 5.28058 16.6206C5.34693 16.648 5.40722 16.6883 5.45801 16.7391C5.50879 16.7899 5.54908 16.8502 5.57656 16.9165C5.60405 16.9829 5.61819 17.054 5.61819 17.1258C5.61819 17.1976 5.60405 17.2688 5.57656 17.3351C5.54908 17.4015 5.50879 17.4618 5.45801 17.5125L1.47848 21.4921C1.42769 21.5429 1.3674 21.5832 1.30105 21.6107C1.2347 21.6382 1.16358 21.6523 1.09176 21.6523C1.01994 21.6523 0.948819 21.6382 0.882465 21.6107C0.816112 21.5832 0.755744 21.5429 0.704961 21.4921ZM0.831211 25.8273L6.88363 19.7771C6.98625 19.6745 7.12541 19.6169 7.27049 19.6169C7.41557 19.617 7.5547 19.6747 7.65727 19.7773C7.75983 19.8799 7.81743 20.019 7.81739 20.1641C7.81736 20.3092 7.75969 20.4483 7.65707 20.5509L1.60473 26.6011C1.50216 26.7036 1.36306 26.7612 1.21801 26.7612C1.07296 26.7612 0.933854 26.7036 0.831289 26.6011C0.728725 26.4985 0.671105 26.3594 0.671105 26.2143C0.671105 26.0693 0.728725 25.9302 0.831289 25.8276L0.831211 25.8273ZM23.2609 34.5418C23.3117 34.5926 23.352 34.6529 23.3795 34.7193C23.4069 34.7856 23.4211 34.8567 23.4211 34.9286C23.4211 35.0004 23.4069 35.0715 23.3795 35.1378C23.352 35.2042 23.3117 35.2645 23.2609 35.3153L19.2791 39.2949C19.2283 39.3457 19.168 39.386 19.1017 39.4134C19.0353 39.4409 18.9642 39.4551 18.8924 39.4551C18.8206 39.4551 18.7494 39.4409 18.6831 39.4134C18.6167 39.386 18.5564 39.3457 18.5057 39.2949C18.4549 39.2441 18.4146 39.1838 18.3871 39.1175C18.3596 39.0511 18.3455 38.98 18.3455 38.9082C18.3455 38.8363 18.3596 38.7652 18.3871 38.6989C18.4146 38.6325 18.4549 38.5722 18.5057 38.5214L22.4875 34.5418C22.5382 34.491 22.5986 34.4507 22.6649 34.4232C22.7313 34.3956 22.8025 34.3815 22.8743 34.3815C22.9462 34.3815 23.0173 34.3956 23.0837 34.4232C23.1501 34.4507 23.2104 34.491 23.2612 34.5418H23.2609ZM20.2224 33.1163L14.1721 39.1665C14.1214 39.2173 14.0611 39.2576 13.9947 39.2851C13.9284 39.3126 13.8573 39.3267 13.7854 39.3267C13.7136 39.3267 13.6425 39.3126 13.5761 39.2851C13.5098 39.2576 13.4495 39.2173 13.3987 39.1665C13.3479 39.1157 13.3076 39.0554 13.2802 38.9891C13.2527 38.9227 13.2385 38.8516 13.2385 38.7798C13.2385 38.708 13.2527 38.6369 13.2802 38.5705C13.3076 38.5042 13.3479 38.4439 13.3987 38.3931L19.4489 32.3429C19.4997 32.2921 19.5599 32.2518 19.6263 32.2243C19.6926 32.1968 19.7638 32.1827 19.8356 32.1827C19.9074 32.1827 19.9785 32.1968 20.0449 32.2243C20.1112 32.2518 20.1715 32.2921 20.2223 32.3429C20.2731 32.3936 20.3134 32.4539 20.3409 32.5203C20.3683 32.5866 20.3825 32.6577 20.3825 32.7296C20.3825 32.8014 20.3683 32.8725 20.3409 32.9389C20.3134 33.0052 20.2732 33.0655 20.2224 33.1163ZM23.294 29.2711C23.3448 29.3218 23.3851 29.3821 23.4126 29.4485C23.4401 29.5148 23.4542 29.586 23.4542 29.6578C23.4542 29.7296 23.4401 29.8007 23.4126 29.8671C23.3851 29.9334 23.3448 29.9937 23.294 30.0445L22.1846 31.1539C22.1339 31.2047 22.0736 31.2449 22.0072 31.2724C21.9409 31.2999 21.8698 31.3141 21.7979 31.3141C21.7261 31.3141 21.655 31.2999 21.5886 31.2724C21.5223 31.2449 21.462 31.2047 21.4112 31.1539C21.3604 31.1031 21.3201 31.0428 21.2927 30.9764C21.2652 30.9101 21.251 30.839 21.251 30.7671C21.251 30.6953 21.2652 30.6242 21.2927 30.5579C21.3201 30.4915 21.3604 30.4312 21.4112 30.3804L22.5206 29.2711C22.5714 29.2202 22.6317 29.1799 22.6981 29.1524C22.7644 29.1249 22.8356 29.1107 22.9075 29.1107C22.9793 29.1107 23.0505 29.1249 23.1169 29.1524C23.1832 29.1799 23.2435 29.2202 23.2943 29.2711H23.294ZM9.23254 18.7489C9.12436 18.7489 9.0186 18.7169 8.92862 18.6569C8.83864 18.5968 8.76849 18.5114 8.72705 18.4115C8.6856 18.3116 8.67472 18.2016 8.69578 18.0955C8.71683 17.9894 8.76889 17.8919 8.84535 17.8154L9.95473 16.7037C10.0055 16.6529 10.0657 16.6125 10.1321 16.585C10.1984 16.5574 10.2695 16.5432 10.3414 16.5431C10.4132 16.5431 10.4844 16.5572 10.5507 16.5846C10.6171 16.612 10.6775 16.6523 10.7283 16.703C10.7792 16.7538 10.8195 16.814 10.8471 16.8804C10.8746 16.9467 10.8888 17.0178 10.8889 17.0897C10.889 17.1615 10.8749 17.2326 10.8474 17.299C10.82 17.3654 10.7798 17.4258 10.729 17.4766L9.61965 18.5882C9.5689 18.6392 9.50857 18.6796 9.44213 18.7072C9.3757 18.7348 9.30447 18.7489 9.23254 18.7489ZM13.7273 33.5457L7.43348 39.8397C7.38269 39.8905 7.3224 39.9308 7.25605 39.9583C7.1897 39.9858 7.11858 39.9999 7.04676 39.9999C6.97494 39.9999 6.90382 39.9858 6.83747 39.9583C6.77111 39.9308 6.71082 39.8905 6.66004 39.8397C6.60925 39.7889 6.56897 39.7287 6.54149 39.6623C6.514 39.5959 6.49986 39.5248 6.49986 39.453C6.49986 39.3812 6.514 39.3101 6.54149 39.2437C6.56897 39.1774 6.60925 39.1171 6.66004 39.0663L12.9539 32.7725C13.0564 32.6699 13.1955 32.6123 13.3406 32.6123C13.4856 32.6123 13.6247 32.6699 13.7273 32.7725C13.8299 32.875 13.8875 33.0141 13.8875 33.1592C13.8875 33.3042 13.8299 33.4433 13.7273 33.5459V33.5457ZM0.160196 33.34C0.109408 33.2892 0.0691203 33.2289 0.0416337 33.1625C0.0141472 33.0962 0 33.0251 0 32.9532C0 32.8814 0.0141472 32.8103 0.0416337 32.7439C0.0691203 32.6776 0.109408 32.6173 0.160196 32.5665L6.45402 26.2727C6.55659 26.1701 6.69569 26.1125 6.84074 26.1125C6.98579 26.1125 7.1249 26.1701 7.22746 26.2727C7.33003 26.3753 7.38765 26.5144 7.38765 26.6594C7.38765 26.8045 7.33003 26.9436 7.22746 27.0461L0.933711 33.34C0.882929 33.3908 0.822639 33.431 0.756285 33.4585C0.689932 33.486 0.618814 33.5002 0.546993 33.5002C0.475171 33.5002 0.404053 33.486 0.3377 33.4585C0.271346 33.431 0.210978 33.3908 0.160196 33.34ZM6.81785 33.9556L1.08434 39.6891C1.03355 39.7399 0.973262 39.7802 0.906908 39.8077C0.840555 39.8351 0.769438 39.8493 0.697618 39.8493C0.625797 39.8493 0.55468 39.8351 0.488327 39.8077C0.421974 39.7802 0.361683 39.7399 0.310899 39.6891C0.260114 39.6383 0.21983 39.578 0.192345 39.5117C0.164861 39.4453 0.150715 39.3742 0.150715 39.3024C0.150715 39.2306 0.164861 39.1594 0.192345 39.0931C0.21983 39.0267 0.260114 38.9664 0.310899 38.9157L6.04449 33.1821C6.14706 33.0796 6.28616 33.022 6.43121 33.022C6.57626 33.022 6.71537 33.0796 6.81793 33.1821C6.92049 33.2847 6.97811 33.4238 6.97811 33.5689C6.97811 33.7139 6.92042 33.853 6.81785 33.9556Z" fill="black"/>
</g>
<defs>
<clipPath id="clip0_1218_779">
<rect width="40" height="40" fill="white"/>
</clipPath>
</defs>
</svg>
